<?xml version="1.0" encoding="utf-8"?>
<!-- Generator: Adobe Illustrator 27.0.1, SVG Export Plug-In . SVG Version: 6.00 Build 0)  -->
<svg version="1.1" id="Layer_1" xmlns="http://www.w3.org/2000/svg" xmlns:xlink="http://www.w3.org/1999/xlink" x="0px" y="0px"
	 viewBox="0 0 800 800" style="enable-background:new 0 0 800 800;" xml:space="preserve">
<style type="text/css">
	.st0{fill:none;stroke:#666666;stroke-width:66.6667;stroke-linecap:round;stroke-linejoin:round;stroke-miterlimit:133.3333;}
	.st1{fill-rule:evenodd;clip-rule:evenodd;fill:#666666;stroke:#666666;stroke-width:13;stroke-miterlimit:10;}
</style>
<g id="SVGRepo_bgCarrier">
</g>
<g id="SVGRepo_tracerCarrier">
</g>
<path class="st0" d="M450,100h-50H266.7c-55.2,0-100,44.8-100,100v400c0,55.2,44.8,100,100,100h100 M450,100l183.3,187.5 M450,100
	v154.2c0,18.4,14.9,33.3,33.3,33.3h150 M633.3,287.5v106.2"/>
<g id="SVGRepo_iconCarrier">
	<g id="Page-1">
		<g id="optimize" transform="translate(64.000000, 64.000000)">
			<path class="st1" d="M603.6,570.4H368.9v26.1h234.7V570.4z M368.7,361.7V453h26.1v-46.9l73,73H533l48.3,48.3l18.4-18.4l-56-56
				h-65.2l-65.2-65.2h46.7v-26.1l-65.4,0H368.7z"/>
		</g>
	</g>
</g>
</svg>
