<?xml version="1.0" encoding="utf-8"?>
<!-- Generator: Adobe Illustrator 27.0.1, SVG Export Plug-In . SVG Version: 6.00 Build 0)  -->
<svg version="1.1" id="Layer_1" xmlns="http://www.w3.org/2000/svg" xmlns:xlink="http://www.w3.org/1999/xlink" x="0px" y="0px"
	 viewBox="0 0 800 800" style="enable-background:new 0 0 800 800;" xml:space="preserve">
<style type="text/css">
	.st0{fill:none;stroke:#666666;stroke-width:66.6667;stroke-linecap:round;stroke-linejoin:round;stroke-miterlimit:133.3333;}
	.st1{fill-rule:evenodd;clip-rule:evenodd;fill:#666666;}
</style>
<g id="SVGRepo_bgCarrier">
</g>
<g id="SVGRepo_tracerCarrier">
</g>
<path class="st0" d="M450,100h-50H266.7c-55.2,0-100,44.8-100,100v400c0,55.2,44.8,100,100,100h100 M450,100l183.3,187.5 M450,100
	v154.2c0,18.4,14.9,33.3,33.3,33.3h150 M633.3,287.5v106.2"/>
<path class="st1" d="M388.1,585c0-84.8,68.8-153.6,153.6-153.6c84.8,0,153.6,68.8,153.6,153.6c0,84.8-68.8,153.6-153.6,153.6
	C456.8,738.6,388.1,669.9,388.1,585z M598.6,543.4c6,6,6,15.7,0,21.7L542,621.7c-8.7,8.7-22.8,8.7-31.5,0l-25.8-25.8
	c-6-6-6-15.7,0-21.7c6-6,15.7-6,21.7,0l19.9,19.9l50.6-50.6C582.9,537.4,592.6,537.4,598.6,543.4z"/>
</svg>
