<?xml version="1.0" encoding="utf-8"?>
<!-- Generator: Adobe Illustrator 27.0.1, SVG Export Plug-In . SVG Version: 6.00 Build 0)  -->
<svg version="1.1" id="Layer_1" xmlns="http://www.w3.org/2000/svg" xmlns:xlink="http://www.w3.org/1999/xlink" x="0px" y="0px"
	 viewBox="0 0 800 800" style="enable-background:new 0 0 800 800;" xml:space="preserve">
<style type="text/css">
	.st0{fill:none;stroke:#666666;stroke-width:66.6667;stroke-linecap:round;stroke-linejoin:round;stroke-miterlimit:133.3333;}
	.st1{fill-rule:evenodd;clip-rule:evenodd;fill:#666666;stroke:#666666;stroke-width:8;stroke-miterlimit:1.6667;}
</style>
<g id="SVGRepo_bgCarrier">
</g>
<g id="SVGRepo_tracerCarrier">
</g>
<path class="st0" d="M450,100h-50H266.7c-55.2,0-100,44.8-100,100v400c0,55.2,44.8,100,100,100h100 M450,100l183.3,187.5 M450,100
	v154.2c0,18.4,14.9,33.3,33.3,33.3h150 M633.3,287.5v106.2"/>
<g id="SVGRepo_iconCarrier">
	<path class="st1" d="M476.2,522.6h-30.6v-28.4h30.6c6-18.5,23.4-31.9,43.9-31.9c20.5,0,37.9,13.4,43.9,31.9h137.1v28.4H564
		c-6,18.5-23.4,31.9-43.9,31.9C499.6,554.6,482.2,541.2,476.2,522.6z M502.4,508.4c0-9.8,7.9-17.7,17.7-17.7
		c9.8,0,17.7,7.9,17.7,17.7c0,9.8-7.9,17.7-17.7,17.7C510.3,526.2,502.4,518.3,502.4,508.4z M445.6,575.9h130
		c6-18.5,23.4-31.9,43.9-31.9c20.5,0,37.9,13.4,43.9,31.9h37.7v28.4h-37.7c-6,18.5-23.4,31.9-43.9,31.9c-20.5,0-37.9-13.4-43.9-31.9
		h-130V575.9z M619.5,572.3c-9.8,0-17.7,7.9-17.7,17.7c0,9.8,7.9,17.7,17.7,17.7c9.8,0,17.7-7.9,17.7-17.7
		C637.2,580.3,629.3,572.3,619.5,572.3z M564,685.9c-6,18.5-23.4,31.9-43.9,31.9c-20.5,0-37.9-13.4-43.9-31.9h-30.6v-28.4h30.6
		c6-18.5,23.4-31.9,43.9-31.9c20.5,0,37.9,13.4,43.9,31.9h137.1v28.4H564z M502.4,671.7c0-9.8,7.9-17.7,17.7-17.7
		c9.8,0,17.7,7.9,17.7,17.7c0,9.8-7.9,17.7-17.7,17.7C510.3,689.5,502.4,681.5,502.4,671.7z"/>
</g>
</svg>
