<?xml version="1.0" encoding="utf-8"?>
<!-- Generator: Adobe Illustrator 27.0.1, SVG Export Plug-In . SVG Version: 6.00 Build 0)  -->
<svg version="1.1" id="Layer_1" xmlns="http://www.w3.org/2000/svg" xmlns:xlink="http://www.w3.org/1999/xlink" x="0px" y="0px"
	 viewBox="0 0 800 800" style="enable-background:new 0 0 800 800;" xml:space="preserve">
<style type="text/css">
	.st0{fill:none;stroke:#666666;stroke-width:66.6667;stroke-linecap:round;stroke-linejoin:round;stroke-miterlimit:133.3333;}
	.st1{fill:#666666;}
</style>
<g id="SVGRepo_bgCarrier">
</g>
<g id="SVGRepo_tracerCarrier">
</g>
<path class="st0" d="M450,100h-50H266.7c-55.2,0-100,44.8-100,100v400c0,55.2,44.8,100,100,100h100 M450,100l183.3,187.5 M450,100
	v154.2c0,18.4,14.9,33.3,33.3,33.3h150 M633.3,287.5v106.2"/>
<g id="SVGRepo_iconCarrier">
	<path class="st1" d="M529.7,737.7L493,774.4c-4,4-10.5,4-14.5,0l-36.8-36.8c-6.5-6.5-1.9-17.5,7.2-17.5h6v-48
		c0-13.6-5.4-26.6-15-36.2l-54.5-54.5c-21.1-21.1-33-49.8-33-79.7V464c0-5.7,4.6-10.2,10.2-10.2h41c5.7,0,10.2,4.6,10.2,10.2v37.8
		c0,13.6,5.4,26.6,15,36.2l54.5,54.5c0.8,0.8,1.5,1.7,2.3,2.5l0,0c19.7,20.9,30.7,48.4,30.7,77.2v0v48h6
		C531.6,720.2,536.2,731.2,529.7,737.7z M608.7,453.7h-41c-5.7,0-10.2,4.6-10.2,10.2v37.8c0,13.6-5.4,26.6-15,36.2l-49.6,49.6
		c15.7,16.5,26.3,36.6,31,58.4c2.2-3.6,4.6-7.1,7.6-10.1l54.5-54.5c21.1-21.1,33-49.8,33-79.7V464
		C619,458.3,614.4,453.7,608.7,453.7z"/>
</g>
</svg>
