<?xml version="1.0" encoding="utf-8"?>
<!-- Generator: Adobe Illustrator 27.0.1, SVG Export Plug-In . SVG Version: 6.00 Build 0)  -->
<svg version="1.1" id="Layer_1" xmlns="http://www.w3.org/2000/svg" xmlns:xlink="http://www.w3.org/1999/xlink" x="0px" y="0px"
	 viewBox="0 0 800 800" style="enable-background:new 0 0 800 800;" xml:space="preserve">
<style type="text/css">
	.st0{fill:none;stroke:#666666;stroke-width:66.6667;stroke-linecap:round;stroke-linejoin:round;stroke-miterlimit:133.3333;}
	.st1{fill:#666666;stroke:#666666;stroke-width:7;stroke-miterlimit:10;}
</style>
<g id="SVGRepo_bgCarrier">
</g>
<g id="SVGRepo_tracerCarrier">
</g>
<path class="st0" d="M450,100h-50H266.7c-55.2,0-100,44.8-100,100v400c0,55.2,44.8,100,100,100h100 M450,100l183.3,187.5 M450,100
	v154.2c0,18.4,14.9,33.3,33.3,33.3h150 M633.3,287.5v106.2"/>
<g id="SVGRepo_bgCarrier_00000180327763575097972190000005754294334517237935_">
</g>
<g id="SVGRepo_tracerCarrier_00000137123482417961551360000006973703256865124484_">
</g>
<g id="SVGRepo_iconCarrier">
	<g>
		<path class="st1" d="M344.9,528.8c0,30.6,11.7,61.3,35,84.6c23.3,23.3,54.1,35.1,84.6,35c21.3,0,42.7-5.8,61.6-17.2l57.9,57.9
			c11.3,11.3,29.5,11.3,40.8,0c11.3-11.3,11.3-29.5,0-40.8l-57.9-57.9c11.4-18.9,17.2-40.3,17.2-61.6c0-30.5-11.7-61.3-35-84.6
			c-23.3-23.3-54-35.1-84.6-35c-30.5,0-61.3,11.7-84.6,35C356.6,467.5,344.9,498.3,344.9,528.8z M391.1,528.8
			c0-18.9,7.1-37.5,21.5-51.9c14.4-14.4,33.1-21.5,51.9-21.5c18.9,0,37.5,7.1,51.9,21.5c14.4,14.4,21.5,33.1,21.5,51.9
			c0,18.9-7.1,37.5-21.5,51.9c-14.4,14.4-33.1,21.5-51.9,21.5c-18.9,0-37.5-7.1-51.9-21.5C398.2,566.3,391.1,547.7,391.1,528.8z"/>
	</g>
</g>
</svg>
