<?xml version="1.0" encoding="utf-8"?>
<!-- Generator: Adobe Illustrator 27.0.1, SVG Export Plug-In . SVG Version: 6.00 Build 0)  -->
<svg version="1.1" id="Layer_1" xmlns="http://www.w3.org/2000/svg" xmlns:xlink="http://www.w3.org/1999/xlink" x="0px" y="0px"
	 viewBox="0 0 800 800" style="enable-background:new 0 0 800 800;" xml:space="preserve">
<style type="text/css">
	.st0{fill:none;stroke:#666666;stroke-width:66.6667;stroke-linecap:round;stroke-linejoin:round;stroke-miterlimit:133.3333;}
	.st1{fill-rule:evenodd;clip-rule:evenodd;fill:#666666;stroke:#666666;stroke-width:11;stroke-miterlimit:10;}
</style>
<g id="SVGRepo_bgCarrier">
</g>
<g id="SVGRepo_tracerCarrier">
</g>
<path class="st0" d="M450,100h-50H266.7c-55.2,0-100,44.8-100,100v400c0,55.2,44.8,100,100,100h100 M450,100l183.3,187.5 M450,100
	v154.2c0,18.4,14.9,33.3,33.3,33.3h150 M633.3,287.5v106.2"/>
<g id="SVGRepo_iconCarrier">
	<g id="Page-1">
		<g id="Dribbble-Light-Preview" transform="translate(-181.000000, -720.000000)">
			<g id="icons" transform="translate(56.000000, 160.000000)">
				<path id="notification_x5F_bell-_x5B__x23_1397_x5D_" class="st1" d="M706.3,1168.4H576v-92c0-40.9,32.6-61.3,65.1-61.3h0
					c32.6,0,65.1,20.5,65.1,61.3V1168.4z M657.4,1214.3c0,8.5-7.3,15.3-16.3,15.3s-16.3-6.9-16.3-15.3V1199h32.6V1214.3z
					 M755.2,1168.4c-9,0-16.3-6.9-16.3-15.3v-76.7c0-54.5-38.6-84.7-81.5-90.8V969c0-8.5-7.3-15.3-16.3-15.3s-16.3,6.9-16.3,15.3
					v16.5c-42.9,6.1-81.5,36.3-81.5,90.8v76.7c0,8.5-7.3,15.3-16.3,15.3s-16.3,6.9-16.3,15.3s7.3,15.3,16.3,15.3h65.2v15.3
					c0,25.4,21.9,46,48.9,46s48.9-20.6,48.9-46V1199h65.2c9,0,16.3-6.9,16.3-15.3S764.2,1168.4,755.2,1168.4L755.2,1168.4z"/>
			</g>
		</g>
	</g>
</g>
</svg>
