<?xml version="1.0" encoding="utf-8"?>
<!-- Generator: Adobe Illustrator 27.0.1, SVG Export Plug-In . SVG Version: 6.00 Build 0)  -->
<svg version="1.1" id="Layer_1" xmlns="http://www.w3.org/2000/svg" xmlns:xlink="http://www.w3.org/1999/xlink" x="0px" y="0px"
	 viewBox="0 0 800 800" style="enable-background:new 0 0 800 800;" xml:space="preserve">
<style type="text/css">
	.st0{fill:none;stroke:#666666;stroke-width:66.6667;stroke-linecap:round;stroke-linejoin:round;stroke-miterlimit:133.3333;}
	.st1{fill:#666666;stroke:#666666;stroke-width:14;stroke-miterlimit:10;}
</style>
<g id="SVGRepo_bgCarrier">
</g>
<g id="SVGRepo_tracerCarrier">
</g>
<path class="st0" d="M450,100h-50H266.7c-55.2,0-100,44.8-100,100v400c0,55.2,44.8,100,100,100h100 M450,100l183.3,187.5 M450,100
	v154.2c0,18.4,14.9,33.3,33.3,33.3h150 M633.3,287.5v106.2"/>
<g id="SVGRepo_iconCarrier">
	<path class="st1" d="M451.8,566.1H344.6c-7.4,0-13.4,6-13.4,13.4c0,7.4,6,13.4,13.4,13.4l0,0h93.7v93.7c0,7.4,6,13.4,13.4,13.4
		c7.4,0,13.4-6,13.4-13.4l0,0V579.5C465.2,572.1,459.2,566.1,451.8,566.1L451.8,566.1z M644.6,566.1H537.5c-7.4,0-13.4,6-13.4,13.4
		v107.1c0,7.4,6,13.4,13.4,13.4c7.4,0,13.4-6,13.4-13.4l0,0v-93.7h93.7c7.4,0,13.4-6,13.4-13.4C658,572.1,652,566.1,644.6,566.1
		L644.6,566.1z M451.8,373.2c-7.4,0-13.4,6-13.4,13.4l0,0v93.7h-93.7c-7.4,0-13.4,6-13.4,13.4c0,7.4,6,13.4,13.4,13.4l0,0h107.1
		c7.4,0,13.4-6,13.4-13.4l0,0V386.6C465.2,379.2,459.2,373.2,451.8,373.2L451.8,373.2z M537.5,507.2h107.1c7.4,0,13.4-6,13.4-13.4
		c0-7.4-6-13.4-13.4-13.4l0,0h-93.7v-93.7c0-7.4-6-13.4-13.4-13.4c-7.4,0-13.4,6-13.4,13.4l0,0v107.1
		C524.1,501.2,530.1,507.2,537.5,507.2L537.5,507.2z"/>
</g>
</svg>
