<?xml version="1.0" encoding="utf-8"?>
<!-- Generator: Adobe Illustrator 27.0.1, SVG Export Plug-In . SVG Version: 6.00 Build 0)  -->
<svg version="1.1" id="Layer_1" xmlns="http://www.w3.org/2000/svg" xmlns:xlink="http://www.w3.org/1999/xlink" x="0px" y="0px"
	 viewBox="0 0 800 800" style="enable-background:new 0 0 800 800;" xml:space="preserve">
<style type="text/css">
	.st0{fill:none;stroke:#666666;stroke-width:66.6667;stroke-linecap:round;stroke-linejoin:round;stroke-miterlimit:133.3333;}
	.st1{fill-rule:evenodd;clip-rule:evenodd;fill:#666666;}
</style>
<g id="SVGRepo_bgCarrier">
</g>
<g id="SVGRepo_tracerCarrier">
</g>
<path class="st0" d="M450,100h-50H266.7c-55.2,0-100,44.8-100,100v400c0,55.2,44.8,100,100,100h100 M450,100l183.3,187.5 M450,100
	v154.2c0,18.4,14.9,33.3,33.3,33.3h150 M633.3,287.5v106.2"/>
<path class="st1" d="M595.5,475.3l12-12c4.5-4.5,11.9-4.5,16.5,0l32.9,32.9c4.5,4.5,4.5,11.9,0,16.5l-12,12c3.1,6,5.8,12.3,7.8,18.9
	h17c6.4,0,11.6,5.2,11.6,11.6v46.5c0,6.4-5.2,11.6-11.6,11.6h-17c-2.1,6.6-4.7,12.9-7.8,18.9l12,12c4.5,4.5,4.5,11.9,0,16.5
	l-32.9,32.9c-4.5,4.5-11.9,4.5-16.5,0l-12-12c-6,3.1-12.3,5.8-18.9,7.8v17c0,6.4-5.2,11.6-11.6,11.6h-46.5
	c-6.4,0-11.6-5.2-11.6-11.6v-17c-6.6-2.1-12.9-4.7-18.9-7.8l-12,12c-4.5,4.5-11.9,4.5-16.5,0l-32.9-32.9c-4.5-4.5-4.5-11.9,0-16.5
	l12-12c-3.1-6-5.8-12.3-7.8-18.9h-17c-6.4,0-11.6-5.2-11.6-11.6v-46.5c0-6.4,5.2-11.6,11.6-11.6h17c2.1-6.6,4.7-12.9,7.8-18.9
	l-12-12c-4.5-4.5-4.5-11.9,0-16.5l32.9-32.9c4.5-4.5,11.9-4.5,16.5,0l12,12c6-3.1,12.3-5.8,18.9-7.8v-17c0-6.4,5.2-11.6,11.6-11.6
	h46.5c6.4,0,11.6,5.2,11.6,11.6v17C583.1,469.5,589.4,472.2,595.5,475.3z M541.7,636.6c-32.1,0-58.2-26-58.2-58.2
	c0-32.1,26-58.2,58.2-58.2c32.1,0,58.2,26,58.2,58.2C599.8,610.6,573.8,636.6,541.7,636.6z M541.7,613.4c19.3,0,34.9-15.6,34.9-34.9
	s-15.6-34.9-34.9-34.9c-19.3,0-34.9,15.6-34.9,34.9S522.4,613.4,541.7,613.4z"/>
</svg>
