<?xml version="1.0" encoding="utf-8"?>
<!-- Generator: Adobe Illustrator 27.0.1, SVG Export Plug-In . SVG Version: 6.00 Build 0)  -->
<svg version="1.1" id="Layer_1" xmlns="http://www.w3.org/2000/svg" xmlns:xlink="http://www.w3.org/1999/xlink" x="0px" y="0px"
	 viewBox="0 0 800 800" style="enable-background:new 0 0 800 800;" xml:space="preserve">
<style type="text/css">
	.st0{fill:none;stroke:#666666;stroke-width:66.6667;stroke-linecap:round;stroke-linejoin:round;stroke-miterlimit:133.3333;}
	.st1{fill-rule:evenodd;clip-rule:evenodd;fill:#666666;}
</style>
<g id="SVGRepo_bgCarrier">
</g>
<g id="SVGRepo_tracerCarrier">
</g>
<path class="st0" d="M450,100h-50H266.7c-55.2,0-100,44.8-100,100v400c0,55.2,44.8,100,100,100h100 M450,100l183.3,187.5 M450,100
	v154.2c0,18.4,14.9,33.3,33.3,33.3h150 M633.3,287.5v106.2"/>
<g id="SVGRepo_iconCarrier">
	<path class="st1" d="M419.2,577.9c20.4,0,37-16.5,37-37c0-20.4-16.5-37-37-37s-37,16.5-37,37C382.2,561.3,398.8,577.9,419.2,577.9z
		 M483.2,504c-12.8-22.1-36.7-37-64-37c-34.4,0-63.4,23.6-71.6,55.4h-20.8c-10.2,0-18.5,8.3-18.5,18.5s8.3,18.5,18.5,18.5h20.8
		c8.2,31.9,37.1,55.4,71.6,55.4c40.8,0,73.9-33.1,73.9-73.9h37c0,40.8,33.1,73.9,73.9,73.9c34.4,0,63.4-23.6,71.6-55.4h20.8
		c10.2,0,18.5-8.3,18.5-18.5s-8.3-18.5-18.5-18.5h-20.8c-8.2-31.9-37.1-55.4-71.6-55.4c-27.4,0-51.2,14.9-64,37H483.2z M567,540.9
		c0,20.4,16.5,37,37,37s37-16.5,37-37c0-20.4-16.5-37-37-37S567,520.5,567,540.9z"/>
</g>
</svg>
