<?xml version="1.0" encoding="utf-8"?>
<!-- Generator: Adobe Illustrator 27.0.1, SVG Export Plug-In . SVG Version: 6.00 Build 0)  -->
<svg version="1.1" id="Layer_1" xmlns="http://www.w3.org/2000/svg" xmlns:xlink="http://www.w3.org/1999/xlink" x="0px" y="0px"
	 viewBox="0 0 800 800" style="enable-background:new 0 0 800 800;" xml:space="preserve">
<style type="text/css">
	.st0{fill:none;stroke:#666666;stroke-width:66.6667;stroke-linecap:round;stroke-linejoin:round;stroke-miterlimit:133.3333;}
	.st1{fill:#666666;stroke:#666666;stroke-width:16;stroke-miterlimit:10;}
</style>
<g id="SVGRepo_bgCarrier">
</g>
<g id="SVGRepo_tracerCarrier">
</g>
<path class="st0" d="M450,100h-50H266.7c-55.2,0-100,44.8-100,100v400c0,55.2,44.8,100,100,100h100 M450,100l183.3,187.5 M450,100
	v154.2c0,18.4,14.9,33.3,33.3,33.3h150 M633.3,287.5v106.2"/>
<g id="SVGRepo_iconCarrier">
	<path class="st1" d="M342.5,634.5h98.9v-98.9l-34.2,34.2c-15.5-15.5-25.1-36.9-25.1-60.6c0-47.3,38.4-85.7,85.7-85.7
		s85.7,38.4,85.7,85.7c0,30.4-15.8,57.1-39.7,72.3l28.4,28.4C573,587.2,593,550.6,593,509.2c0-69.2-56.1-125.2-125.2-125.2
		s-125.2,56.1-125.2,125.2c0,34.6,14,65.9,36.7,88.6L342.5,634.5z"/>
</g>
</svg>
