<?xml version="1.0" encoding="utf-8"?>
<!-- Generator: Adobe Illustrator 27.0.1, SVG Export Plug-In . SVG Version: 6.00 Build 0)  -->
<svg version="1.1" id="Layer_1" xmlns="http://www.w3.org/2000/svg" xmlns:xlink="http://www.w3.org/1999/xlink" x="0px" y="0px"
	 viewBox="0 0 800 800" style="enable-background:new 0 0 800 800;" xml:space="preserve">
<style type="text/css">
	.st0{fill:none;stroke:#666666;stroke-width:66.6667;stroke-linecap:round;stroke-linejoin:round;stroke-miterlimit:133.3333;}
	.st1{fill:none;stroke:#666666;stroke-width:42;stroke-linecap:round;stroke-linejoin:round;stroke-miterlimit:133.3333;}
</style>
<g id="SVGRepo_bgCarrier">
</g>
<g id="SVGRepo_tracerCarrier">
</g>
<path class="st0" d="M450,100h-50H266.7c-55.2,0-100,44.8-100,100v400c0,55.2,44.8,100,100,100h100 M450,100l183.3,187.5 M450,100
	v154.2c0,18.4,14.9,33.3,33.3,33.3h150 M633.3,287.5v106.2"/>
<g id="SVGRepo_iconCarrier">
	<path class="st1" d="M395.6,513h213.7 M443.1,429.9v23.7 M561.9,429.9v23.7 M433.6,643.6h137.7c13.3,0,19.9,0,25-2.6
		c4.5-2.3,8.1-5.9,10.4-10.4c2.6-5.1,2.6-11.7,2.6-25v-114c0-13.3,0-19.9-2.6-25c-2.3-4.5-5.9-8.1-10.4-10.4
		c-5.1-2.6-11.7-2.6-25-2.6H433.6c-13.3,0-19.9,0-25,2.6c-4.5,2.3-8.1,5.9-10.4,10.4c-2.6,5.1-2.6,11.7-2.6,25v114
		c0,13.3,0,19.9,2.6,25c2.3,4.5,5.9,8.1,10.4,10.4C413.7,643.6,420.3,643.6,433.6,643.6z"/>
</g>
</svg>
