<?xml version="1.0" encoding="utf-8"?>
<!-- Generator: Adobe Illustrator 27.0.1, SVG Export Plug-In . SVG Version: 6.00 Build 0)  -->
<svg version="1.1" id="Layer_1" xmlns="http://www.w3.org/2000/svg" xmlns:xlink="http://www.w3.org/1999/xlink" x="0px" y="0px"
	 viewBox="0 0 800 800" style="enable-background:new 0 0 800 800;" xml:space="preserve">
<style type="text/css">
	.st0{fill:none;stroke:#666666;stroke-width:66.6667;stroke-linecap:round;stroke-linejoin:round;stroke-miterlimit:133.3333;}
	.st1{fill:#666666;}
</style>
<g id="SVGRepo_bgCarrier">
</g>
<g id="SVGRepo_tracerCarrier">
</g>
<path class="st0" d="M450,100h-50H266.7c-55.2,0-100,44.8-100,100v400c0,55.2,44.8,100,100,100h100 M450,100l183.3,187.5 M450,100
	v154.2c0,18.4,14.9,33.3,33.3,33.3h150 M633.3,287.5v106.2"/>
<g id="SVGRepo_iconCarrier">
	<path class="st1" d="M394.2,380c-37.1,0-67.2,30.1-67.2,67.2s30.1,67.2,67.2,67.2c7.2,0,14.4-1.2,21.2-3.5l-12.6-12.6l45-45
		l4.5-4.5l8.3,8.3c0.5-3.3,0.8-6.6,0.8-9.9C461.4,410.1,431.3,380,394.2,380z M452.3,466.6l-31.7,31.7l60.9,60.9L465,575.6
		l80.6,16.1l-16.1-80.6l-16.4,16.4L452.3,466.6L452.3,466.6z M552,559.1l9.7,48.6l-55.6-11.1v96.9h134.4V559.1H552L552,559.1z"/>
</g>
</svg>
