<?xml version="1.0" encoding="utf-8"?>
<!-- Generator: Adobe Illustrator 27.0.1, SVG Export Plug-In . SVG Version: 6.00 Build 0)  -->
<svg version="1.1" id="Layer_1" xmlns="http://www.w3.org/2000/svg" xmlns:xlink="http://www.w3.org/1999/xlink" x="0px" y="0px"
	 viewBox="0 0 800 800" style="enable-background:new 0 0 800 800;" xml:space="preserve">
<style type="text/css">
	.st0{fill:none;stroke:#666666;stroke-width:66.6667;stroke-linecap:round;stroke-linejoin:round;stroke-miterlimit:133.3333;}
	.st1{fill:none;stroke:#666666;stroke-width:40;stroke-miterlimit:133.3333;}
	.st2{fill:none;stroke:#666666;stroke-width:27;stroke-miterlimit:133.3333;}
</style>
<g id="SVGRepo_bgCarrier">
</g>
<g id="SVGRepo_tracerCarrier">
</g>
<path class="st0" d="M450,100h-50H266.7c-55.2,0-100,44.8-100,100v400c0,55.2,44.8,100,100,100h100 M450,100l183.3,187.5 M450,100
	v154.2c0,18.4,14.9,33.3,33.3,33.3h150 M633.3,287.5v106.2"/>
<path class="st1" d="M582,568.9c-12.1,12.1,15.1,45.2,0,60.3s-48.2-12.1-60.3,0s-18.1,36.2-36.2,36.2c-18.1,0-24.1-24.1-36.2-36.2
	c-12.1-12.1-45.2,15.1-60.3,0s12.1-48.2,0-60.3c-12.1-12.1-36.2-18.1-36.2-36.2s24.1-24.1,36.2-36.2c12.1-12.1-15.1-45.2,0-60.3
	s48.2,12.1,60.3,0c12.1-12.1,18.1-36.2,36.2-36.2c18.1,0,24.1,24.1,36.2,36.2s45.2-15.1,60.3,0s-12.1,48.2,0,60.3
	c12.1,12.1,36.2,18.1,36.2,36.2S594.1,556.8,582,568.9z"/>
<polyline class="st2" points="444.7,531.4 469.2,555.9 526.5,498.6 "/>
</svg>
